<?xml version="1.0" encoding="UTF-8"?>
<svg id="_레이어_1" data-name="레이어 1" xmlns="http://www.w3.org/2000/svg" viewBox="0 0 1666 555.16">
  <defs>
    <style>
      .cls-1 {
        fill: #040000;
        stroke-width: 0px;
      }
    </style>
  </defs>
  <g>
    <g>
      <polygon class="cls-1" points="694.66 171.52 694.66 383.38 661.35 383.38 661.35 238.14 632.99 292.81 611.9 292.81 583.54 237.89 583.54 383.38 550.22 383.38 550.22 171.52 583.54 171.52 583.54 171.78 583.79 171.78 622.58 248.82 661.08 171.78 661.35 171.78 661.35 171.52 694.66 171.52"/>
      <polygon class="cls-1" points="830.01 171.52 830.01 202.23 765.98 202.23 765.98 262.09 814.91 262.09 807.36 292.81 765.98 292.81 765.98 352.67 830.01 352.67 830.01 383.38 732.4 383.38 732.4 171.52 830.01 171.52"/>
      <polygon class="cls-1" points="901.06 202.23 901.06 262.09 950.25 262.09 942.71 292.81 901.06 292.81 901.06 383.38 867.49 383.38 867.49 171.52 965.35 171.52 965.35 202.23 901.06 202.23"/>
      <polygon class="cls-1" points="1090.8 352.67 1083 383.38 1002.83 383.38 1002.83 171.52 1036.41 171.52 1036.41 352.67 1090.8 352.67"/>
      <polygon class="cls-1" points="1210.26 171.52 1185.02 271.72 1209.49 171.52 1210.26 171.52"/>
      <polygon class="cls-1" points="427.37 171.78 427.37 202.49 375.32 202.49 375.32 383.38 342 383.38 342 202.49 289.94 202.49 289.94 171.78 427.37 171.78"/>
      <g>
        <polygon class="cls-1" points="1376.06 383.38 1339.35 383.38 1283.14 277.45 1339.35 171.52 1375.8 171.52 1318.27 277.45 1376.06 383.38"/>
        <polygon class="cls-1" points="1281.31 171.52 1281.31 383.38 1248 383.38 1247.73 171.52 1281.31 171.52"/>
      </g>
    </g>
    <polygon class="cls-1" points="475.78 171.78 466.67 207.7 475.52 171.78 475.78 171.78"/>
    <g>
      <path class="cls-1" d="M1666,277.45c0,155.64-365.94,277.71-833.13,277.71-148.09,0-285.78-12.23-404.98-34.09l8.33-34.88c113.48,20.3,247.51,32.53,396.65,32.53,92.14,0,178.56-4.68,257.93-13.01l29.67-122.33,51.53-211.86h37.48l-24.47,100.2-3.9,16.4-23.96,95.26h.79l-28.63,117.64c308.15-38,500.25-133.26,500.25-223.58,0-79.38-149.13-162.67-395.35-207.43l8.58-35.14c254.55,46.84,423.21,136.9,423.21,242.57Z"/>
      <polygon class="cls-1" points="1181.12 288.12 1157.95 383.38 1157.16 383.38 1181.12 288.12"/>
    </g>
    <path class="cls-1" d="M1206.88,28.63l-8.59,35.14c-106.45-17.17-229.55-27.33-365.42-27.33-105.15,0-202.75,5.99-290.97,16.66l-28.9,118.68-51.53,211.6h-38.77l43.99-175.68,9.11-35.92h-.27l27.59-113.48C214.72,99.17,36.43,190.52,36.43,277.45c0,76.26,136.64,155.9,364.12,201.97l-8.59,34.88C154.87,465.88,0,378.7,0,277.45,0,121.81,365.69,0,832.87,0c135.34,0,262.1,10.15,374.01,28.63Z"/>
  </g>
  <g>
    <path class="cls-1" d="M1582.98,6.01h-17.09V0h41.33v6.01h-17.09v50.41h-7.16V6.01Z"/>
    <path class="cls-1" d="M1617.26,0h8.62l10.85,30.17c1.31,3.92,2.62,7.85,4.01,11.77h.38c1.3-3.92,2.54-7.85,3.85-11.77l10.78-30.17h8.62v56.42h-6.69v-31.25c0-4.85.54-11.7.92-16.62h-.31l-4.46,12.85-10.7,29.33h-4.77l-10.7-29.33-4.46-12.85h-.31c.31,4.93.85,11.77.85,16.62v31.25h-6.46V0Z"/>
  </g>
</svg>